<svg width="178" height="178" viewBox="0 0 178 178" fill="none" xmlns="http://www.w3.org/2000/svg">
<circle cx="89" cy="89" r="89" fill="#FAFAFA"/>
<path d="M50.2051 93.5641L127.795 93.5642" stroke="#BFBFBF" stroke-width="2" stroke-miterlimit="10"/>
<path d="M89 86.718V53.6282M89 133.5V100.41" stroke="#BFBFBF" stroke-width="2" stroke-miterlimit="10"/>
<path fill-rule="evenodd" clip-rule="evenodd" d="M88.9999 52.3782L89.5999 52.8282C100.854 61.269 117.762 66.8911 128.936 66.8911H129.936V67.8911C129.936 74.1816 129.2 80.5317 127.728 86.718H125.673C127.102 80.8703 127.855 74.8581 127.93 68.8771C116.514 68.5654 100.224 63.0561 88.9999 54.8719C77.7754 63.0561 61.4856 68.5654 50.0701 68.8771C50.1447 74.8581 50.8975 80.8703 52.3266 86.718H50.2718C48.7993 80.5317 48.064 74.1816 48.064 67.8911V66.8911H49.064C60.2373 66.8911 77.1455 61.269 88.3999 52.8282L88.9999 52.3782ZM54.894 100.41C61.4269 115.054 72.6536 127.582 88.6059 134.419L88.9999 134.588L89.3938 134.419C105.346 127.582 116.573 115.054 123.106 100.41H120.911C114.562 114.178 103.914 125.895 88.9999 132.41C74.0854 125.895 63.4382 114.178 57.0885 100.41H54.894Z" fill="#BFBFBF"/>
</svg>
