<svg width="40" height="40" viewBox="0 0 40 40" fill="none" xmlns="http://www.w3.org/2000/svg">
<path d="M31.5625 3.4375H34.0625C34.8913 3.4375 35.6862 3.76674 36.2722 4.35279C36.8583 4.93884 37.1875 5.7337 37.1875 6.5625V34.0625C37.1875 34.8913 36.8583 35.6862 36.2722 36.2722C35.6862 36.8583 34.8913 37.1875 34.0625 37.1875H6.5625C5.7337 37.1875 4.93884 36.8583 4.35279 36.2722C3.76674 35.6862 3.4375 34.8913 3.4375 34.0625V6.5625C3.4375 5.7337 3.76674 4.93884 4.35279 4.35279C4.93884 3.76674 5.7337 3.4375 6.5625 3.4375H9.0625" stroke="#00609C" stroke-width="2" stroke-miterlimit="10" stroke-linecap="square"/>
<path d="M27.8125 23.4375L20.3125 17.1875L12.8125 23.4375V3.4375H27.8125V23.4375Z" stroke="#3DAE2B" stroke-width="2" stroke-miterlimit="10" stroke-linecap="square"/>
</svg>
