<svg width="40" height="40" viewBox="0 0 40 40" fill="none" xmlns="http://www.w3.org/2000/svg">
<path d="M37.0625 16.25C37.3409 15.3284 37.4882 14.3721 37.5 13.4094C37.5097 12.146 37.2696 10.8931 36.7934 9.72281C36.3172 8.55253 35.6143 7.48793 34.7253 6.59025C33.8362 5.69256 32.7784 4.9795 31.6127 4.49207C30.4471 4.00463 29.1966 3.75245 27.9331 3.75001C26.3555 3.74375 24.8018 4.13498 23.4153 4.8876C22.0288 5.64022 20.8542 6.72996 20 8.05626C19.1458 6.72996 17.9712 5.64022 16.5847 4.8876C15.1982 4.13498 13.6445 3.74375 12.0669 3.75001C10.8034 3.75245 9.55291 4.00463 8.38727 4.49207C7.22162 4.9795 6.16384 5.69256 5.27475 6.59025C4.38566 7.48793 3.68281 8.55253 3.20661 9.72281C2.73042 10.8931 2.49028 12.146 2.5 13.4094C2.51284 14.3722 2.66117 15.3285 2.94063 16.25" stroke="#00609C" stroke-width="2" stroke-miterlimit="10" stroke-linecap="square"/>
<path d="M6.875 23.6981C12.0581 30.925 20 37.5 20 37.5C20 37.5 27.9419 30.925 33.125 23.6981" stroke="#00609C" stroke-width="2" stroke-miterlimit="10" stroke-linecap="square"/>
<path d="M1.25 20H12.5L16.25 13.75L23.75 25L27.5 20H38.75" stroke="#3DAE2B" stroke-width="2" stroke-miterlimit="10" stroke-linecap="square"/>
</svg>
