<svg width="40" height="40" viewBox="0 0 40 40" fill="none" xmlns="http://www.w3.org/2000/svg">
<path d="M8.75 10C8.75 5.1675 12.6675 1.25 17.5 1.25C22.3325 1.25 26.25 5.1675 26.25 10C26.25 14.8325 22.3325 20 17.5 20C12.6675 20 8.75 14.8325 8.75 10Z" stroke="#00609C" stroke-width="2" stroke-miterlimit="10" stroke-linecap="square"/>
<path d="M24.4969 25.5431C22.5056 25.2156 20.1781 25 17.5 25C10.5375 25 5.94125 26.4569 3.46687 27.5544C2.11187 28.155 1.25 29.4975 1.25 30.9794V37.5H24.375" stroke="#00609C" stroke-width="2" stroke-miterlimit="10"/>
<path d="M37.5519 24.99C35.7275 23.1012 32.6825 23.41 31.25 25.6437C29.8163 23.4075 26.7706 23.1031 24.9481 24.9894C23.3506 26.6425 23.3506 29.3237 24.9481 30.9769L31.2494 37.5L37.5519 30.9775C39.1494 29.3237 39.1494 26.6431 37.5519 24.99Z" stroke="#3DAE2B" stroke-width="2" stroke-miterlimit="10" stroke-linecap="square"/>
</svg>
