<svg width="40" height="40" viewBox="0 0 40 40" fill="none" xmlns="http://www.w3.org/2000/svg">
<path d="M3 20L37 20" stroke="#3DAE2B" stroke-width="2" stroke-miterlimit="10"/>
<path d="M20 17V2.5M20 37.5V23" stroke="#00609C" stroke-width="2" stroke-miterlimit="10"/>
<path fill-rule="evenodd" clip-rule="evenodd" d="M20 1.25L20.6 1.7C25.4441 5.33304 32.7369 7.75 37.5 7.75H38.5V8.75C38.5 11.5026 38.183 14.2846 37.5472 17H35.4924C36.085 14.6169 36.4168 12.1665 36.4862 9.71981C31.5165 9.43293 24.8042 7.12359 20 3.73622C15.1958 7.12359 8.48353 9.43293 3.51376 9.71981C3.58315 12.1665 3.91496 14.6169 4.5076 17H2.45277C1.81695 14.2846 1.5 11.5026 1.5 8.75V7.75H2.5C7.26312 7.75 14.5559 5.33304 19.4 1.7L20 1.25ZM4.44114 23C7.33785 29.6279 12.3818 35.3229 19.6061 38.4191L20 38.588L20.3939 38.4191C27.6182 35.3229 32.6622 29.6279 35.5589 23H33.3642C30.6522 28.7517 26.1882 33.6352 20 36.4082C13.8118 33.6352 9.3478 28.7517 6.63579 23H4.44114Z" fill="#00609C"/>
</svg>
