<svg width="190" height="46" viewBox="0 0 190 46" fill="none" xmlns="http://www.w3.org/2000/svg">
<g clip-path="url(#clip0)">
<path d="M60.1029 33.1276C58.1626 32.607 56.6482 31.9918 55.5124 31.2819L57.8313 26.2181C58.9198 26.928 60.1975 27.4486 61.7593 27.9218C63.2737 28.3477 64.7881 28.5844 66.2552 28.5844C69.2366 28.5844 70.7037 27.8745 70.7037 26.3601C70.7037 25.6502 70.2778 25.177 69.4733 24.893C68.6687 24.6091 67.4383 24.3251 65.7346 24.1358C63.7469 23.8519 62.1379 23.4733 60.8128 23.0947C59.535 22.7161 58.3992 22.0062 57.4527 21.0124C56.5062 20.0185 56.0329 18.5988 56.0329 16.8004C56.0329 15.286 56.4589 13.9136 57.358 12.7305C58.2572 11.5473 59.535 10.6008 61.2387 9.9856C62.9424 9.32305 64.9301 8.99178 67.249 8.99178C68.9527 8.99178 70.6564 9.18108 72.3601 9.55968C74.0638 9.93828 75.4362 10.4589 76.572 11.1214L74.2531 16.1379C72.1235 14.9547 69.8045 14.3395 67.2963 14.3395C65.7819 14.3395 64.6934 14.5288 63.9362 14.9547C63.179 15.3807 62.8004 15.9012 62.8004 16.5638C62.8004 17.321 63.2263 17.8416 64.0309 18.1255C64.8354 18.4095 66.1132 18.6934 67.9115 18.9774C69.8992 19.3086 71.5082 19.6399 72.786 20.0185C74.0638 20.3971 75.1523 21.0597 76.0514 22.0535C76.998 23.0473 77.4239 24.4198 77.4239 26.1708C77.4239 27.6852 76.9506 29.0103 76.0514 30.1934C75.1523 31.3765 73.8272 32.2757 72.1235 32.8909C70.4198 33.5535 68.3375 33.8375 65.9712 33.8375C63.9835 33.8848 62.0432 33.6481 60.1029 33.1276Z" fill="#00609C"/>
<path d="M105.298 23.3786H86.9835C87.3148 24.893 88.072 26.0761 89.3025 26.928C90.5329 27.7798 92.0473 28.2531 93.893 28.2531C95.1708 28.2531 96.2593 28.0638 97.2531 27.6852C98.2469 27.3066 99.1461 26.7387 99.9506 25.8868L103.689 29.9568C101.418 32.5597 98.0576 33.8848 93.7037 33.8848C90.9588 33.8848 88.5453 33.3642 86.463 32.2757C84.3807 31.1873 82.7243 29.7202 81.5885 27.8272C80.4527 25.9342 79.8848 23.8045 79.8848 21.391C79.8848 19.0247 80.4527 16.8951 81.5885 14.9547C82.7243 13.0617 84.2387 11.5473 86.2263 10.5062C88.214 9.4177 90.3909 8.89713 92.8045 8.89713C95.1708 8.89713 97.3004 9.4177 99.2407 10.4115C101.181 11.4527 102.648 12.8724 103.784 14.8128C104.872 16.7058 105.44 18.93 105.44 21.4383C105.44 21.5803 105.393 22.2428 105.298 23.3786ZM88.8765 15.6173C87.7881 16.5165 87.1255 17.7469 86.8889 19.3086H98.8148C98.5782 17.7942 97.9156 16.5638 96.8272 15.6646C95.7387 14.7654 94.4136 14.2922 92.8518 14.2922C91.2901 14.2449 89.965 14.7181 88.8765 15.6173Z" fill="#00609C"/>
<path d="M114.858 32.2757C112.823 31.1873 111.214 29.7202 110.031 27.8272C108.895 25.9342 108.28 23.8045 108.28 21.391C108.28 18.9774 108.848 16.8477 110.031 14.9547C111.167 13.0617 112.776 11.5947 114.858 10.5062C116.94 9.4177 119.212 8.89713 121.815 8.89713C124.37 8.89713 126.595 9.4177 128.488 10.5062C130.381 11.5947 131.8 13.1091 132.652 15.0494L127.21 17.9835C125.932 15.7593 124.134 14.6708 121.767 14.6708C119.922 14.6708 118.407 15.286 117.224 16.4691C116.041 17.6523 115.426 19.3087 115.426 21.391C115.426 23.4733 116.041 25.0823 117.224 26.3128C118.407 27.4959 119.922 28.1111 121.767 28.1111C124.181 28.1111 125.979 27.0226 127.21 24.7984L132.652 27.7798C131.8 29.7202 130.381 31.1873 128.488 32.2757C126.595 33.3642 124.37 33.8848 121.815 33.8848C119.259 33.8848 116.94 33.3169 114.858 32.2757Z" fill="#00609C"/>
<path d="M175.955 9.84363C177.374 9.22841 179.031 8.94446 180.877 8.94446V15.428C180.119 15.3807 179.551 15.3333 179.315 15.3333C177.327 15.3333 175.718 15.9012 174.582 17.0371C173.446 18.1729 172.879 19.8292 172.879 22.1008V33.5062H165.874V9.32306H172.595V12.5412C173.399 11.3107 174.535 10.4589 175.955 9.84363Z" fill="#00609C"/>
<path d="M186.177 9.27573C187.739 9.27573 189.016 10.5535 189.016 12.1152C189.016 13.677 187.739 14.9547 186.177 14.9547C184.615 14.9547 183.337 13.677 183.337 12.1152C183.337 10.5535 184.615 9.27573 186.177 9.27573ZM183.905 12.1152C183.905 13.3457 184.899 14.3868 186.177 14.3868C187.407 14.3868 188.449 13.393 188.449 12.1152C188.449 10.8848 187.455 9.84363 186.177 9.84363C184.946 9.84363 183.905 10.8375 183.905 12.1152Z" fill="#00609C"/>
<path d="M184.946 13.4877C184.946 12.4938 184.946 11.5 184.946 10.5535C185.372 10.5535 185.751 10.5535 186.177 10.5535C186.366 10.5535 186.556 10.5535 186.745 10.6481C186.887 10.6955 186.981 10.7428 187.076 10.8374C187.171 10.9321 187.218 11.0741 187.218 11.2161C187.218 11.358 187.218 11.5 187.171 11.642C187.123 11.8313 186.981 11.9733 186.792 12.0679C186.745 12.0679 186.698 12.1152 186.65 12.1152H186.698C186.84 12.1626 186.934 12.2572 186.981 12.3519C187.029 12.4465 187.076 12.5412 187.123 12.5885C187.265 12.8724 187.407 13.1564 187.549 13.4403C187.549 13.4403 187.549 13.4403 187.549 13.4877C187.265 13.4877 187.029 13.4877 186.792 13.4877H186.745C186.603 13.251 186.508 12.9671 186.366 12.7305C186.319 12.6831 186.319 12.6358 186.272 12.5412C186.177 12.4465 186.082 12.3992 185.988 12.3519C185.893 12.3519 185.798 12.3519 185.656 12.3519C185.656 12.7305 185.656 13.1091 185.656 13.4877C185.42 13.4877 185.183 13.4877 184.946 13.4877ZM185.704 11.1214C185.704 11.358 185.704 11.642 185.704 11.8786C185.846 11.8786 185.94 11.8786 186.082 11.8786C186.13 11.8786 186.177 11.8786 186.224 11.8786C186.319 11.8313 186.414 11.784 186.461 11.642C186.461 11.5947 186.461 11.5 186.461 11.4527C186.461 11.4054 186.461 11.358 186.414 11.3107C186.366 11.216 186.272 11.1687 186.177 11.1687C186.035 11.0741 185.846 11.1214 185.704 11.1214Z" fill="#00609C"/>
<path d="M143.679 9.32306V23.284C143.679 24.893 144.105 26.1235 145.004 26.928C145.903 27.7799 147.134 28.2058 148.837 28.2058C150.541 28.2058 151.772 27.7799 152.671 26.928C153.57 26.0761 153.996 24.8457 153.996 23.284V9.32306H161.142V23.284C161.142 25.5556 160.621 27.4959 159.533 29.0576C158.444 30.6194 156.977 31.8025 155.084 32.607C153.191 33.4115 151.062 33.7901 148.695 33.7901C146.329 33.7901 144.247 33.4115 142.449 32.607C140.65 31.8498 139.23 30.6667 138.189 29.0576C137.148 27.4959 136.628 25.5556 136.628 23.284V9.32306H143.679Z" fill="#00609C"/>
<path d="M15.6173 16.9897C18.5514 16.6111 21.2963 14.3868 23.7572 10.3169L24.5144 9.08642L40.463 22.1481C40.7469 21.2963 40.9835 20.4444 41.2202 19.5926C41.8354 17.0844 42.1667 14.4815 42.214 11.8313C42.2613 9.93827 42.3087 7.71399 41.7407 5.86831C41.5514 5.20576 41.0782 4.63786 40.5103 4.25926C39.7058 3.69136 38.7593 3.36008 37.9074 2.98148C33.2696 1.18313 28.3477 0.236626 23.3786 0L10.2222 15.6173C11.3107 16.3272 13.2984 17.321 15.6173 16.9897Z" fill="#00609C"/>
<path d="M15.9007 19.4979C11.1208 20.1132 7.66608 16.8951 7.52411 16.7531L6.67226 15.9486L20.1126 0C16.0426 0.0946502 11.9727 0.709877 8.04468 1.79835C6.34098 2.2716 4.73193 2.88683 3.07555 3.50206C1.93974 3.97531 0.945917 4.35391 0.567316 5.58436C0.14139 6.90946 0.14139 8.51852 0.0467402 9.93827C-0.04791 11.7366 -0.000584906 13.5823 0.14139 15.3807C0.519991 19.072 1.51382 22.716 3.12287 26.0761C4.4953 28.9156 6.34098 31.5658 8.51793 33.8848C10.3163 35.8251 12.3513 37.5761 14.5755 39.0432C16.1373 40.1317 17.7937 41.0782 19.4974 41.93C19.734 42.072 21.2011 42.9712 21.5323 42.8292C22.9048 42.1193 24.2772 41.3621 25.6023 40.5576L15.2854 31.8498C14.7648 31.4239 14.6702 30.6193 15.1434 30.0988C15.5694 29.5782 16.3739 29.4835 16.8945 29.9568L27.7319 39.0905C28.2052 38.7593 28.6784 38.3807 29.1517 38.0494C29.8142 37.5288 30.4768 36.9609 31.092 36.393L20.0653 27.07C19.5447 26.644 19.45 25.8395 19.9233 25.3189C20.3492 24.7984 21.1537 24.7037 21.6743 25.177L32.8904 34.642C33.8369 33.6481 34.736 32.6543 35.5406 31.5658L24.7504 22.3848C24.2299 21.9588 24.1352 21.1543 24.6085 20.6337C25.0344 20.1132 25.8389 20.0185 26.3595 20.4918L37.0076 29.4362C37.1496 29.2469 37.2443 29.0576 37.3862 28.8683C38.1908 27.5432 38.9007 26.1235 39.5159 24.7037L25.129 12.8724C22.3842 16.8477 19.2607 19.072 15.9007 19.4979Z" fill="#3DAE2B"/>
<path d="M110.646 44.6276C109.936 44.6276 109.321 44.391 108.848 43.9177C108.375 43.4445 108.138 42.8292 108.138 42.1193C108.138 41.4095 108.375 40.7942 108.848 40.321C109.321 39.8477 109.936 39.6111 110.646 39.6111C111.072 39.6111 111.498 39.7058 111.877 39.9424C112.255 40.1317 112.539 40.4156 112.728 40.7942L112.019 41.1728C111.877 40.9362 111.687 40.7469 111.451 40.6049C111.214 40.463 110.93 40.4156 110.646 40.4156C110.126 40.4156 109.7 40.5576 109.368 40.8889C109.037 41.2202 108.895 41.6461 108.895 42.1193C108.895 42.6399 109.037 43.0185 109.368 43.3498C109.7 43.6811 110.126 43.8231 110.646 43.8231C110.93 43.8231 111.214 43.7757 111.498 43.6337C111.735 43.4918 111.924 43.3025 112.066 43.0658L112.776 43.4445C112.586 43.8231 112.302 44.0597 111.924 44.2963C111.498 44.5329 111.119 44.6276 110.646 44.6276Z" fill="#00609C"/>
<path d="M114.953 44.6276C114.432 44.6276 114.006 44.4383 113.675 44.107C113.296 43.7757 113.154 43.3025 113.154 42.8292C113.154 42.3086 113.344 41.8827 113.675 41.5514C114.054 41.2202 114.479 41.0309 114.953 41.0309C115.473 41.0309 115.899 41.2202 116.23 41.5514C116.562 41.8827 116.751 42.356 116.751 42.8292C116.751 43.3498 116.562 43.7757 116.23 44.107C115.899 44.4383 115.473 44.6276 114.953 44.6276ZM114.195 43.5864C114.385 43.7757 114.669 43.9177 114.953 43.9177C115.237 43.9177 115.521 43.823 115.71 43.5864C115.899 43.3971 116.041 43.1132 116.041 42.7819C116.041 42.4506 115.947 42.214 115.71 41.9774C115.521 41.7881 115.237 41.6461 114.953 41.6461C114.669 41.6461 114.385 41.7407 114.195 41.9774C114.006 42.1667 113.864 42.4506 113.864 42.7819C113.864 43.1132 114.006 43.3971 114.195 43.5864Z" fill="#00609C"/>
<path d="M118.218 41.6934C118.407 41.2675 118.739 41.0309 119.259 41.0309V41.8354C118.975 41.8354 118.739 41.8827 118.502 42.0247C118.313 42.1667 118.171 42.4506 118.171 42.7819V44.5329H117.414V41.0782H118.171V41.6934H118.218Z" fill="#00609C"/>
<path d="M120.584 41.6934C120.774 41.2675 121.105 41.0309 121.626 41.0309V41.8354C121.342 41.8354 121.105 41.8827 120.868 42.0247C120.679 42.1667 120.537 42.4506 120.537 42.7819V44.5329H119.78V41.0782H120.537V41.6934H120.584Z" fill="#00609C"/>
<path d="M122.619 43.1132C122.667 43.3971 122.809 43.5864 122.998 43.7284C123.187 43.8704 123.424 43.9177 123.708 43.9177C124.086 43.9177 124.418 43.7757 124.607 43.4918L125.222 43.8704C124.891 44.3909 124.37 44.6276 123.708 44.6276C123.14 44.6276 122.714 44.4383 122.335 44.107C122.004 43.7757 121.815 43.3498 121.815 42.7819C121.815 42.2613 122.004 41.8354 122.335 41.5041C122.667 41.1728 123.093 40.9835 123.661 40.9835C124.181 40.9835 124.607 41.1728 124.891 41.5041C125.222 41.8354 125.364 42.3086 125.364 42.7819C125.364 42.8765 125.364 42.9712 125.317 43.1132H122.619ZM122.619 42.5453H124.654C124.607 42.2613 124.465 42.072 124.323 41.93C124.134 41.7881 123.944 41.6934 123.661 41.6934C123.377 41.6934 123.14 41.7881 122.951 41.93C122.809 42.072 122.667 42.2613 122.619 42.5453Z" fill="#00609C"/>
<path d="M128.772 39.7058H129.529V44.5329H128.772V44.0123C128.488 44.3909 128.109 44.5802 127.541 44.5802C127.068 44.5802 126.642 44.3909 126.311 44.0597C125.979 43.7284 125.79 43.2551 125.79 42.7819C125.79 42.2613 125.979 41.8354 126.311 41.5041C126.642 41.1728 127.068 40.9835 127.541 40.9835C128.062 40.9835 128.488 41.1728 128.772 41.5514V39.7058ZM126.926 43.5864C127.115 43.7757 127.399 43.9177 127.73 43.9177C128.062 43.9177 128.298 43.823 128.535 43.5864C128.724 43.3971 128.866 43.1132 128.866 42.7819C128.866 42.4506 128.772 42.214 128.535 41.9774C128.346 41.7881 128.062 41.6461 127.73 41.6461C127.399 41.6461 127.163 41.7407 126.926 41.9774C126.737 42.1667 126.595 42.4506 126.595 42.7819C126.595 43.1132 126.689 43.3971 126.926 43.5864Z" fill="#00609C"/>
<path d="M132.037 44.6276C131.516 44.6276 131.091 44.4383 130.759 44.107C130.381 43.7757 130.239 43.3025 130.239 42.8292C130.239 42.3086 130.428 41.8827 130.759 41.5514C131.138 41.2202 131.564 41.0309 132.037 41.0309C132.558 41.0309 132.984 41.2202 133.315 41.5514C133.646 41.8827 133.835 42.356 133.835 42.8292C133.835 43.3498 133.646 43.7757 133.315 44.107C132.984 44.4383 132.558 44.6276 132.037 44.6276ZM131.28 43.5864C131.469 43.7757 131.753 43.9177 132.037 43.9177C132.321 43.9177 132.605 43.823 132.794 43.5864C132.984 43.3971 133.126 43.1132 133.126 42.7819C133.126 42.4506 133.031 42.214 132.794 41.9774C132.605 41.7881 132.321 41.6461 132.037 41.6461C131.753 41.6461 131.469 41.7407 131.28 41.9774C131.091 42.1667 130.949 42.4506 130.949 42.7819C130.949 43.1132 131.043 43.3971 131.28 43.5864Z" fill="#00609C"/>
<path d="M135.302 41.6934C135.492 41.2675 135.823 41.0309 136.344 41.0309V41.8354C136.06 41.8354 135.823 41.8827 135.586 42.0247C135.397 42.1667 135.255 42.4506 135.255 42.7819V44.5329H134.498V41.0782H135.255V41.6934H135.302Z" fill="#00609C"/>
<path d="M137.337 43.1132C137.385 43.3971 137.527 43.5864 137.716 43.7284C137.905 43.8704 138.142 43.9177 138.426 43.9177C138.805 43.9177 139.136 43.7757 139.325 43.4918L139.94 43.8704C139.609 44.3909 139.088 44.6276 138.426 44.6276C137.858 44.6276 137.432 44.4383 137.054 44.107C136.722 43.7757 136.533 43.3498 136.533 42.7819C136.533 42.2613 136.722 41.8354 137.054 41.5041C137.385 41.1728 137.811 40.9835 138.379 40.9835C138.899 40.9835 139.325 41.1728 139.609 41.5041C139.94 41.8354 140.082 42.3086 140.082 42.7819C140.082 42.8765 140.082 42.9712 140.035 43.1132H137.337ZM137.337 42.5453H139.372C139.325 42.2613 139.183 42.072 139.041 41.93C138.852 41.7881 138.663 41.6934 138.379 41.6934C138.095 41.6934 137.858 41.7881 137.669 41.93C137.479 42.072 137.385 42.2613 137.337 42.5453Z" fill="#00609C"/>
<path d="M141.313 42.0247C141.313 42.1193 141.36 42.214 141.502 42.3086C141.644 42.356 141.786 42.4506 141.975 42.4979C142.165 42.5453 142.354 42.5926 142.543 42.6872C142.733 42.7346 142.875 42.8765 143.016 43.0185C143.158 43.1605 143.206 43.3498 143.206 43.5864C143.206 43.9177 143.064 44.2016 142.827 44.3909C142.591 44.5803 142.259 44.6749 141.881 44.6749C141.549 44.6749 141.265 44.5802 140.981 44.4383C140.745 44.2963 140.556 44.107 140.461 43.823L141.123 43.4444C141.265 43.7757 141.502 43.965 141.881 43.965C142.259 43.965 142.449 43.823 142.449 43.5864C142.449 43.4918 142.401 43.3971 142.259 43.3025C142.117 43.2551 141.975 43.1605 141.786 43.1132C141.597 43.0658 141.407 43.0185 141.218 42.9239C141.029 42.8765 140.887 42.7346 140.745 42.5926C140.603 42.4506 140.556 42.2613 140.556 42.0247C140.556 41.6934 140.698 41.4568 140.934 41.2675C141.171 41.0782 141.455 40.9835 141.833 40.9835C142.117 40.9835 142.354 41.0309 142.591 41.1728C142.827 41.3148 142.969 41.4568 143.111 41.6934L142.496 42.0247C142.354 41.7407 142.165 41.6461 141.833 41.6461C141.691 41.6461 141.549 41.6934 141.455 41.7407C141.36 41.8354 141.313 41.93 141.313 42.0247Z" fill="#00609C"/>
<path d="M148.27 39.7058H149.027V44.5329H148.27V44.0123C147.986 44.3909 147.607 44.5802 147.039 44.5802C146.566 44.5802 146.14 44.3909 145.809 44.0597C145.477 43.7284 145.288 43.2551 145.288 42.7819C145.288 42.2613 145.477 41.8354 145.809 41.5041C146.14 41.1728 146.566 40.9835 147.039 40.9835C147.56 40.9835 147.986 41.1728 148.27 41.5514V39.7058ZM146.424 43.5864C146.613 43.7757 146.897 43.9177 147.228 43.9177C147.56 43.9177 147.796 43.823 148.033 43.5864C148.222 43.3971 148.364 43.1132 148.364 42.7819C148.364 42.4506 148.27 42.214 148.033 41.9774C147.844 41.7881 147.56 41.6461 147.228 41.6461C146.897 41.6461 146.661 41.7407 146.424 41.9774C146.235 42.1667 146.093 42.4506 146.093 42.7819C146.093 43.1132 146.187 43.3971 146.424 43.5864Z" fill="#00609C"/>
<path d="M150.494 43.1132C150.541 43.3971 150.683 43.5864 150.872 43.7284C151.062 43.8704 151.298 43.9177 151.582 43.9177C151.961 43.9177 152.292 43.7757 152.481 43.4918L153.097 43.8704C152.765 44.3909 152.245 44.6276 151.582 44.6276C151.014 44.6276 150.588 44.4383 150.21 44.107C149.879 43.7757 149.689 43.3498 149.689 42.7819C149.689 42.2613 149.879 41.8354 150.21 41.5041C150.541 41.1728 150.967 40.9835 151.535 40.9835C152.056 40.9835 152.481 41.1728 152.765 41.5041C153.097 41.8354 153.239 42.3086 153.239 42.7819C153.239 42.8765 153.239 42.9712 153.191 43.1132H150.494ZM150.494 42.5453H152.529C152.481 42.2613 152.34 42.072 152.198 41.93C152.008 41.7881 151.819 41.6934 151.535 41.6934C151.251 41.6934 151.014 41.7881 150.825 41.93C150.636 42.072 150.541 42.2613 150.494 42.5453Z" fill="#00609C"/>
<path d="M157.309 44.6276C156.835 44.6276 156.457 44.5329 156.126 44.2963C155.794 44.0597 155.558 43.7757 155.463 43.4444L156.126 43.0658C156.315 43.5864 156.741 43.8704 157.309 43.8704C157.593 43.8704 157.829 43.823 157.971 43.6811C158.113 43.5864 158.208 43.3971 158.208 43.2078C158.208 43.0185 158.113 42.8765 157.971 42.7346C157.829 42.5926 157.545 42.4979 157.119 42.4033C156.883 42.356 156.693 42.2613 156.551 42.214C156.409 42.1667 156.267 42.072 156.078 41.9774C155.936 41.8827 155.794 41.7407 155.7 41.5514C155.605 41.4095 155.605 41.2202 155.605 40.9835C155.605 40.5576 155.747 40.2263 156.078 39.9424C156.362 39.7058 156.741 39.5638 157.167 39.5638C157.545 39.5638 157.877 39.6584 158.161 39.8477C158.444 40.037 158.681 40.2737 158.823 40.6523L158.161 41.0309C157.971 40.5576 157.64 40.3683 157.167 40.3683C156.93 40.3683 156.741 40.4156 156.599 40.5103C156.457 40.6049 156.409 40.7469 156.409 40.9362C156.409 41.1255 156.457 41.2675 156.599 41.3621C156.741 41.4568 156.977 41.5988 157.356 41.6934C157.545 41.7407 157.687 41.7881 157.782 41.8354C157.877 41.8827 157.971 41.93 158.161 41.9774C158.302 42.0247 158.444 42.1193 158.492 42.1667C158.586 42.214 158.634 42.3086 158.728 42.4033C158.823 42.4979 158.87 42.5926 158.918 42.7346C158.965 42.8765 158.965 43.0185 158.965 43.1605C158.965 43.5864 158.823 43.965 158.492 44.2016C158.255 44.4856 157.829 44.6276 157.309 44.6276Z" fill="#00609C"/>
<path d="M160.337 43.1132C160.385 43.3971 160.527 43.5864 160.716 43.7284C160.905 43.8704 161.142 43.9177 161.426 43.9177C161.805 43.9177 162.136 43.7757 162.325 43.4918L162.94 43.8704C162.609 44.3909 162.088 44.6276 161.426 44.6276C160.858 44.6276 160.432 44.4383 160.054 44.107C159.722 43.7757 159.533 43.3498 159.533 42.7819C159.533 42.2613 159.722 41.8354 160.054 41.5041C160.385 41.1728 160.811 40.9835 161.379 40.9835C161.899 40.9835 162.325 41.1728 162.609 41.5041C162.94 41.8354 163.082 42.3086 163.082 42.7819C163.082 42.8765 163.082 42.9712 163.035 43.1132H160.337ZM160.337 42.5453H162.372C162.325 42.2613 162.183 42.072 162.041 41.93C161.852 41.7881 161.663 41.6934 161.379 41.6934C161.095 41.6934 160.858 41.7881 160.669 41.93C160.527 42.072 160.385 42.2613 160.337 42.5453Z" fill="#00609C"/>
<path d="M166.49 41.0782H167.2V44.3909C167.2 44.9115 167.01 45.3375 166.679 45.6214C166.348 45.9054 165.922 46.0473 165.401 46.0473C164.597 46.0473 164.076 45.7634 163.745 45.1955L164.407 44.8169C164.597 45.1481 164.928 45.3375 165.401 45.3375C165.733 45.3375 165.969 45.2428 166.158 45.1008C166.348 44.9589 166.442 44.7222 166.442 44.3909V43.965C166.158 44.3436 165.78 44.5802 165.259 44.5802C164.786 44.5802 164.36 44.3909 164.029 44.0597C163.698 43.7284 163.508 43.3025 163.508 42.7819C163.508 42.2613 163.698 41.8827 164.029 41.5041C164.36 41.1255 164.786 40.9835 165.259 40.9835C165.78 40.9835 166.158 41.1728 166.442 41.5988V41.0782H166.49ZM164.644 43.5391C164.833 43.7284 165.117 43.8704 165.449 43.8704C165.78 43.8704 166.016 43.7757 166.253 43.5391C166.442 43.3498 166.584 43.0658 166.584 42.7819C166.584 42.4979 166.49 42.214 166.253 42.0247C166.064 41.8354 165.78 41.6934 165.449 41.6934C165.117 41.6934 164.881 41.7881 164.644 42.0247C164.455 42.214 164.313 42.4979 164.313 42.7819C164.313 43.0658 164.407 43.3498 164.644 43.5391Z" fill="#00609C"/>
<path d="M170.418 41.0782H171.175V44.5329H170.418V44.107C170.181 44.4383 169.85 44.6276 169.329 44.6276C168.951 44.6276 168.619 44.4856 168.383 44.249C168.146 44.0123 168.004 43.6337 168.004 43.2078V41.0782H168.761V43.1132C168.761 43.3498 168.809 43.5864 168.951 43.7284C169.093 43.8704 169.282 43.9177 169.519 43.9177C169.802 43.9177 169.992 43.823 170.134 43.6811C170.276 43.5391 170.37 43.2551 170.37 42.9239V41.0782H170.418Z" fill="#00609C"/>
<path d="M172.784 41.6934C172.973 41.2675 173.305 41.0309 173.825 41.0309V41.8354C173.541 41.8354 173.305 41.8827 173.068 42.0247C172.879 42.1667 172.737 42.4506 172.737 42.7819V44.5329H171.979V41.0782H172.737V41.6934H172.784Z" fill="#00609C"/>
<path d="M175.907 44.6276C175.387 44.6276 174.961 44.4383 174.63 44.107C174.251 43.7757 174.109 43.3025 174.109 42.8292C174.109 42.3086 174.298 41.8827 174.63 41.5514C175.008 41.2202 175.434 41.0309 175.907 41.0309C176.428 41.0309 176.854 41.2202 177.185 41.5514C177.516 41.8827 177.706 42.356 177.706 42.8292C177.706 43.3498 177.516 43.7757 177.185 44.107C176.854 44.4383 176.428 44.6276 175.907 44.6276ZM175.15 43.5864C175.34 43.7757 175.623 43.9177 175.907 43.9177C176.191 43.9177 176.475 43.823 176.665 43.5864C176.854 43.3971 176.996 43.1132 176.996 42.7819C176.996 42.4506 176.901 42.214 176.665 41.9774C176.475 41.7881 176.191 41.6461 175.907 41.6461C175.623 41.6461 175.34 41.7407 175.15 41.9774C174.961 42.1667 174.819 42.4506 174.819 42.7819C174.819 43.1132 174.914 43.3971 175.15 43.5864Z" fill="#00609C"/>
<path d="M178.984 42.0247C178.984 42.1193 179.031 42.214 179.173 42.3086C179.315 42.356 179.457 42.4506 179.646 42.4979C179.835 42.5453 180.025 42.5926 180.214 42.6872C180.403 42.7346 180.545 42.8765 180.687 43.0185C180.829 43.1605 180.877 43.3498 180.877 43.5864C180.877 43.9177 180.735 44.2016 180.498 44.3909C180.261 44.5803 179.93 44.6749 179.551 44.6749C179.22 44.6749 178.936 44.5802 178.652 44.4383C178.416 44.2963 178.226 44.107 178.132 43.823L178.794 43.4444C178.936 43.7757 179.173 43.965 179.551 43.965C179.93 43.965 180.119 43.823 180.119 43.5864C180.119 43.4918 180.072 43.3971 179.93 43.3025C179.788 43.2551 179.646 43.1605 179.457 43.1132C179.267 43.0658 179.078 43.0185 178.889 42.9239C178.7 42.8765 178.558 42.7346 178.416 42.5926C178.274 42.4506 178.226 42.2613 178.226 42.0247C178.226 41.6934 178.368 41.4568 178.605 41.2675C178.842 41.0782 179.126 40.9835 179.504 40.9835C179.788 40.9835 180.025 41.0309 180.261 41.1728C180.498 41.3148 180.64 41.4568 180.782 41.6934L180.167 42.0247C180.025 41.7407 179.835 41.6461 179.504 41.6461C179.362 41.6461 179.22 41.6934 179.126 41.7407C179.031 41.8354 178.984 41.93 178.984 42.0247Z" fill="#00609C"/>
</g>
<defs>
<clipPath id="clip0">
<rect width="189.016" height="46" fill="white"/>
</clipPath>
</defs>
</svg>
