<svg width="208" height="50" viewBox="0 0 208 50" fill="none" xmlns="http://www.w3.org/2000/svg">
<rect width="208" height="50" fill="none"/>
<path fill-rule="evenodd" clip-rule="evenodd" d="M192.508 13H147.445C144.988 13 143 15.0195 143 17.5152V32.5359C143 35.001 145.012 37 147.492 37H192.572C195.015 37 197 34.984 197 32.5016V17.4639C197 14.9988 194.988 13 192.508 13ZM191.046 30.712C191.046 31.2467 190.618 31.6788 190.092 31.6788C189.565 31.6788 189.136 31.2467 189.136 30.712V22.5279C189.136 21.0434 187.952 19.744 186.548 19.689C186.507 19.6856 186.47 19.6856 186.433 19.6856C184.914 19.6856 183.726 20.8925 183.726 22.4284V30.7016C183.726 31.24 183.294 31.6788 182.764 31.6788C182.231 31.6788 181.799 31.24 181.799 30.7016V22.5246C181.799 21.1189 180.81 19.9121 179.504 19.7164C179.366 19.6959 179.231 19.6856 179.096 19.6856C177.604 19.6856 176.389 20.9165 176.389 22.4284V30.7016C176.389 31.24 175.957 31.6788 175.427 31.6788C174.894 31.6788 174.462 31.24 174.462 30.7016V22.4284C174.462 19.8571 176.497 17.8443 179.096 17.8443C180.587 17.8443 181.947 18.5438 182.754 19.7199C183.584 18.5267 184.921 17.8443 186.433 17.8443C189.018 17.8443 191.046 19.8571 191.046 22.4284V30.712ZM166.352 31.9086C169.443 31.9086 171.6 29.8032 171.6 26.7895V19.137C171.6 18.6022 171.171 18.1667 170.624 18.1667C170.098 18.1667 169.669 18.6022 169.669 19.137V26.7895C169.669 28.7989 168.4 30.0469 166.352 30.0469C164.327 30.0469 163.017 28.768 163.017 26.7895V19.137C163.017 18.6022 162.588 18.1667 162.062 18.1667C161.535 18.1667 161.107 18.6022 161.107 19.137V26.7895C161.107 29.8032 163.264 31.9086 166.352 31.9086ZM157.465 31.6788H149.824C149.345 31.6788 148.954 31.2914 148.954 30.8149V30.0879C148.954 30.0296 148.974 29.9715 149.004 29.9269L155.737 20.0114H150.111C149.611 20.0114 149.203 19.5966 149.203 19.0891C149.203 18.5817 149.611 18.1667 150.111 18.1667H157.293C157.772 18.1667 158.164 18.5543 158.164 19.0308V19.7406C158.164 19.7988 158.147 19.8571 158.113 19.9052L151.38 29.817H157.465C157.968 29.817 158.373 30.2318 158.373 30.7396C158.373 31.2674 157.968 31.6788 157.465 31.6788ZM133.071 18C131.223 18 128.124 18.7566 128.124 23.8215V26.1787C128.124 31.2438 131.223 32 133.071 32C136.249 32 138 29.9326 138 26.1787V23.8215C138 20.0674 136.249 18 133.071 18ZM136.184 26.1787C136.184 28.9749 135.165 30.3341 133.071 30.3341C130.964 30.3341 129.94 28.9749 129.94 26.1787V23.8215C129.94 21.0255 130.964 19.6661 133.071 19.6661C135.165 19.6661 136.184 21.0255 136.184 23.8215V26.1787ZM111.213 19.0622V27.7108C111.213 29.2633 111.999 30.0839 113.487 30.0839H116.533C117.012 30.0839 117.401 30.4796 117.401 30.9673C117.401 31.455 117.012 31.8507 116.533 31.8507H113.252C111.136 31.8507 109.42 30.104 109.42 27.9493V19.0622C109.42 18.5583 109.821 18.1497 110.316 18.1497C110.811 18.1497 111.213 18.5583 111.213 19.0622ZM120.789 27.7108V19.0333C120.789 18.5451 120.401 18.1497 119.921 18.1497H119.864C119.385 18.1497 118.996 18.5451 118.996 19.0333V27.9493C118.996 30.104 120.712 31.8507 122.829 31.8507H126.109C126.589 31.8507 126.977 31.455 126.977 30.9673C126.977 30.4796 126.589 30.0839 126.109 30.0839H123.063C121.576 30.0839 120.789 29.2633 120.789 27.7108ZM97.5335 27.9493V22.0516C97.5335 19.8966 99.2497 18.1499 101.367 18.1499H105.557C106.02 18.1499 106.396 18.5321 106.396 19.0037V19.043C106.396 19.5147 106.02 19.897 105.557 19.897H101.601C100.113 19.897 99.3267 20.7243 99.3267 22.2897V24.1364H104.714C105.177 24.1364 105.553 24.5189 105.553 24.9906C105.553 25.4624 105.177 25.8444 104.714 25.8444H99.3267V27.7108C99.3267 29.2633 100.113 30.0839 101.601 30.0839H105.557C106.02 30.0839 106.396 30.4664 106.396 30.9381V30.9966C106.396 31.4684 106.02 31.8506 105.557 31.8506H101.366C99.2495 31.8506 97.5335 30.104 97.5335 27.9493ZM92.0268 23.7854H85.7929V19.0526C85.7929 18.5539 85.3959 18.1498 84.906 18.1498H84.8869C84.397 18.1498 84 18.5539 84 19.0526V30.9477C84 31.4464 84.397 31.8507 84.8869 31.8507H84.906C85.3959 31.8507 85.7929 31.4464 85.7929 30.9477V25.5522H92.0268V30.9477C92.0268 31.4464 92.4239 31.8507 92.9138 31.8507C93.4037 31.8507 93.8007 31.4464 93.8007 30.9477V19.0526C93.8007 18.5539 93.4037 18.1498 92.9138 18.1498C92.4239 18.1498 92.0268 18.5539 92.0268 19.0526V23.7854Z" fill="#FF515A"/>
<path fill-rule="evenodd" clip-rule="evenodd" d="M13.5626 25.364C13.8061 25.364 14.0209 25.3317 14.2072 25.2672C14.3935 25.2027 14.5504 25.1125 14.678 24.9966C14.8056 24.8807 14.9017 24.7421 14.9662 24.5808C15.0307 24.4195 15.063 24.242 15.063 24.0484C15.063 23.6465 14.9391 23.3327 14.6912 23.1068C14.4433 22.8809 14.0672 22.768 13.5626 22.768H12.5506V25.364H13.5626ZM13.5626 22.0948C13.9616 22.0948 14.3084 22.141 14.6032 22.2334C14.898 22.3258 15.1422 22.4571 15.3358 22.6272C15.5294 22.7973 15.6739 23.0027 15.7692 23.2432C15.8645 23.4837 15.9122 23.7521 15.9122 24.0484C15.9122 24.3417 15.8609 24.6101 15.7582 24.8536C15.6555 25.0971 15.5052 25.3068 15.3072 25.4828C15.1092 25.6588 14.8643 25.7959 14.5724 25.8942C14.2805 25.9925 13.944 26.0416 13.5626 26.0416H12.5506V28.4H11.7014V22.0948H13.5626ZM23.5954 25.2496C23.5954 25.7219 23.5206 26.1553 23.371 26.5498C23.2214 26.9443 23.0102 27.2839 22.7374 27.5684C22.4646 27.8529 22.1368 28.0737 21.754 28.2306C21.3712 28.3875 20.9481 28.466 20.4846 28.466C20.0211 28.466 19.5988 28.3875 19.2174 28.2306C18.8361 28.0737 18.509 27.8529 18.2362 27.5684C17.9634 27.2839 17.7522 26.9443 17.6026 26.5498C17.453 26.1553 17.3782 25.7219 17.3782 25.2496C17.3782 24.7773 17.453 24.3439 17.6026 23.9494C17.7522 23.5549 17.9634 23.2146 18.2362 22.9286C18.509 22.6426 18.8361 22.4204 19.2174 22.262C19.5988 22.1036 20.0211 22.0244 20.4846 22.0244C20.9481 22.0244 21.3712 22.1036 21.754 22.262C22.1368 22.4204 22.4646 22.6426 22.7374 22.9286C23.0102 23.2146 23.2214 23.5549 23.371 23.9494C23.5206 24.3439 23.5954 24.7773 23.5954 25.2496ZM22.7198 25.2496C22.7198 24.8624 22.667 24.5148 22.5614 24.2068C22.4558 23.8988 22.3062 23.6385 22.1126 23.4258C21.919 23.2131 21.6844 23.0496 21.4086 22.9352C21.1329 22.8208 20.8249 22.7636 20.4846 22.7636C20.1473 22.7636 19.8408 22.8208 19.565 22.9352C19.2893 23.0496 19.0539 23.2131 18.8588 23.4258C18.6637 23.6385 18.5134 23.8988 18.4078 24.2068C18.3022 24.5148 18.2494 24.8624 18.2494 25.2496C18.2494 25.6368 18.3022 25.9837 18.4078 26.2902C18.5134 26.5967 18.6637 26.8563 18.8588 27.069C19.0539 27.2817 19.2893 27.4445 19.565 27.5574C19.8408 27.6703 20.1473 27.7268 20.4846 27.7268C20.8249 27.7268 21.1329 27.6703 21.4086 27.5574C21.6844 27.4445 21.919 27.2817 22.1126 27.069C22.3062 26.8563 22.4558 26.5967 22.5614 26.2902C22.667 25.9837 22.7198 25.6368 22.7198 25.2496ZM33.6766 22.0948L31.7098 28.4H30.9442L29.347 23.5908C29.3323 23.5439 29.3184 23.494 29.3052 23.4412L29.2634 23.274C29.2487 23.3327 29.2341 23.3884 29.2194 23.4412C29.2047 23.494 29.1901 23.5439 29.1754 23.5908L27.5694 28.4H26.8038L24.837 22.0948H25.5454C25.6217 22.0948 25.6855 22.1139 25.7368 22.152C25.7881 22.1901 25.8211 22.2385 25.8358 22.2972L27.1382 26.6796C27.1587 26.7588 27.1785 26.8439 27.1976 26.9348C27.2167 27.0257 27.235 27.1225 27.2526 27.2252C27.2731 27.1225 27.2944 27.025 27.3164 26.9326C27.3384 26.8402 27.3626 26.7559 27.389 26.6796L28.8718 22.2972C28.8894 22.2473 28.9239 22.2011 28.9752 22.1586C29.0265 22.1161 29.0889 22.0948 29.1622 22.0948H29.4086C29.4849 22.0948 29.5465 22.1139 29.5934 22.152C29.6403 22.1901 29.6755 22.2385 29.699 22.2972L31.1774 26.6796C31.2038 26.7559 31.228 26.838 31.25 26.926C31.272 27.014 31.2933 27.1064 31.3138 27.2032C31.3285 27.1064 31.3446 27.014 31.3622 26.926C31.3798 26.838 31.3989 26.7559 31.4194 26.6796L32.7262 22.2972C32.7409 22.2444 32.7739 22.1975 32.8252 22.1564C32.8765 22.1153 32.9389 22.0948 33.0122 22.0948H33.6766ZM39.2918 27.7048L39.2874 28.4H35.4022V22.0948H39.2874V22.79H36.2558V24.8844H38.711V25.5532H36.2558V27.7048H39.2918ZM43.015 25.1484C43.2614 25.1484 43.4792 25.1183 43.6684 25.0582C43.8576 24.9981 44.016 24.913 44.1436 24.803C44.2712 24.693 44.3673 24.5617 44.4318 24.4092C44.4963 24.2567 44.5286 24.088 44.5286 23.9032C44.5286 23.5277 44.4054 23.2447 44.159 23.054C43.9126 22.8633 43.543 22.768 43.0502 22.768H42.1174V25.1484H43.015ZM45.9278 28.4H45.171C45.0155 28.4 44.9011 28.3399 44.8278 28.2196L43.191 25.9668C43.1411 25.8964 43.0876 25.8458 43.0304 25.815C42.9732 25.7842 42.8845 25.7688 42.7642 25.7688H42.1174V28.4H41.2682V22.0948H43.0502C43.4492 22.0948 43.7938 22.1351 44.0842 22.2158C44.3746 22.2965 44.6144 22.4131 44.8036 22.5656C44.9928 22.7181 45.1329 22.9022 45.2238 23.1178C45.3147 23.3334 45.3602 23.5747 45.3602 23.8416C45.3602 24.0645 45.325 24.2728 45.2546 24.4664C45.1842 24.66 45.0823 24.8338 44.9488 24.9878C44.8153 25.1418 44.6525 25.2731 44.4604 25.3816C44.2683 25.4901 44.0505 25.5723 43.807 25.628C43.9155 25.6896 44.0094 25.7791 44.0886 25.8964L45.9278 28.4ZM51.455 27.7048L51.4506 28.4H47.5654V22.0948H51.4506V22.79H48.419V24.8844H50.8742V25.5532H48.419V27.7048H51.455ZM58.8962 25.2496C58.8962 25.7219 58.8214 26.1516 58.6718 26.5388C58.5222 26.926 58.311 27.2575 58.0382 27.5332C57.7654 27.8089 57.4376 28.0223 57.0548 28.1734C56.672 28.3245 56.2489 28.4 55.7854 28.4H53.4314V22.0948H55.7854C56.2489 22.0948 56.672 22.1703 57.0548 22.3214C57.4376 22.4725 57.7654 22.6866 58.0382 22.9638C58.311 23.241 58.5222 23.5732 58.6718 23.9604C58.8214 24.3476 58.8962 24.7773 58.8962 25.2496ZM58.0206 25.2496C58.0206 24.8624 57.9678 24.5163 57.8622 24.2112C57.7566 23.9061 57.607 23.648 57.4134 23.4368C57.2198 23.2256 56.9851 23.0643 56.7094 22.9528C56.4337 22.8413 56.1257 22.7856 55.7854 22.7856H54.285V27.7092H55.7854C56.1257 27.7092 56.4337 27.6535 56.7094 27.542C56.9851 27.4305 57.2198 27.2699 57.4134 27.0602C57.607 26.8505 57.7566 26.5931 57.8622 26.288C57.9678 25.9829 58.0206 25.6368 58.0206 25.2496ZM66.1578 27.7224C66.4013 27.7224 66.611 27.6945 66.787 27.6388C66.963 27.5831 67.1075 27.5046 67.2204 27.4034C67.3333 27.3022 67.4162 27.1819 67.469 27.0426C67.5218 26.9033 67.5482 26.75 67.5482 26.5828C67.5482 26.2572 67.4324 25.9998 67.2006 25.8106C66.9689 25.6214 66.6213 25.5268 66.1578 25.5268H64.7938V27.7224H66.1578ZM64.7938 22.768V24.9196H65.9202C66.1608 24.9196 66.3697 24.8932 66.5472 24.8404C66.7247 24.7876 66.8713 24.7143 66.9872 24.6204C67.1031 24.5265 67.1889 24.4129 67.2446 24.2794C67.3003 24.1459 67.3282 24 67.3282 23.8416C67.3282 23.4691 67.2168 23.197 66.9938 23.0254C66.7709 22.8538 66.4248 22.768 65.9554 22.768H64.7938ZM65.9554 22.0948C66.3426 22.0948 66.6763 22.1329 66.9564 22.2092C67.2365 22.2855 67.4668 22.394 67.6472 22.5348C67.8276 22.6756 67.9603 22.8479 68.0454 23.0518C68.1305 23.2557 68.173 23.4852 68.173 23.7404C68.173 23.8959 68.1488 24.0447 68.1004 24.187C68.052 24.3293 67.9794 24.462 67.8826 24.5852C67.7858 24.7084 67.6633 24.8191 67.5152 24.9174C67.3671 25.0157 67.1933 25.0956 66.9938 25.1572C67.4573 25.2452 67.8056 25.4102 68.0388 25.6522C68.272 25.8942 68.3886 26.2117 68.3886 26.6048C68.3886 26.8717 68.3395 27.1152 68.2412 27.3352C68.1429 27.5552 67.9992 27.7444 67.81 27.9028C67.6208 28.0612 67.3883 28.1837 67.1126 28.2702C66.8369 28.3567 66.523 28.4 66.171 28.4H63.9446V22.0948H65.9554ZM72.785 25.8876V28.4H71.9314V25.8876L69.6214 22.0948H70.3694C70.4457 22.0948 70.5058 22.1131 70.5498 22.1498C70.5938 22.1865 70.632 22.2341 70.6642 22.2928L72.1074 24.7436C72.1602 24.8463 72.2086 24.9423 72.2526 25.0318C72.2966 25.1213 72.3348 25.2115 72.367 25.3024C72.3993 25.2115 72.436 25.1213 72.477 25.0318C72.5181 24.9423 72.5636 24.8463 72.6134 24.7436L74.0522 22.2928C74.0786 22.2429 74.1153 22.1975 74.1622 22.1564C74.2092 22.1153 74.2693 22.0948 74.3426 22.0948H75.095L72.785 25.8876Z" fill="#A4A4AD"/>
</svg>
