<svg width="450" height="208" viewBox="0 0 450 208" fill="none" xmlns="http://www.w3.org/2000/svg">
<path d="M450 0V191C450 200.4 442.4 208 433 208H17C7.6 208 0 200.4 0 191V0" fill="#EE3124"/>
<path d="M252.899 70.3C249.699 70.2 247.399 71.3 244.699 75L212.599 118.5L200.299 76C198.999 71.7 196.199 70.3 193.599 70.3C189.699 70.3 187.699 72 185.699 75.6L157.399 132.3H173.199L192.299 93.2L204.299 132.3H217.499L246.399 93.4L246.299 132.3H259.899L259.799 77.8C259.699 72.5 256.299 70.4 252.899 70.3Z" fill="white"/>
<path d="M138.399 80.4L125.699 132.3H140.099L152.699 80.4H138.399Z" fill="white"/>
<path d="M86.9996 104H76.7996L80.5996 88.3H91.3996C97.0996 88.3 100.1 91 99.4996 95.9C98.9996 101 93.9996 104 86.9996 104ZM113.8 95.2C114.6 88.3 110.6 80.4 96.1996 80.4H68.1996L55.5996 132.3H69.8996L74.5996 112.8H81.9996L94.6996 132.3H110.3L96.0996 111.6C108.7 108.5 113 102.1 113.8 95.2Z" fill="white"/>
<path d="M296.999 113L309.599 94L314.399 113H296.999ZM319.299 132.3H332.999L319.999 84.5C318.299 79 314.899 77.6 311.399 77.9C309.199 78.1 306.899 79 304.499 82.2L270.199 132.4H284.199L291.199 121.8H316.699L319.299 132.3Z" fill="white"/>
<path d="M376.6 122.7C365 122.5 358.4 116 359.3 107.7C360.6 96.5 370.8 89.6 385.2 89.7C389.4 89.7 394.9 90 399.9 91.3L402.4 80.9C398.4 79.9 391.4 79.2 386.9 79.2C362.3 79.2 346.6 90.6 344.7 107.5C343 122.5 353.6 133.3 376.4 133.3C381 133.3 385 132.9 390.6 132L393.4 120.6C388 122 383.6 122.8 376.6 122.7Z" fill="white"/>
</svg>
